# xmcd
#
# Track frame offsets:
#	150
#	46115
#	74397
#	121252
#	165020
#	196545
#
# Disc length: 3264 seconds
#
# Revision: 1
# Processed by: cddbd v1.5.1PL0 Copyright (c) Steve Scherf et al.
# Submitted via: CDex 1.50Beta5
#
DISCID=3c0cbe06
DTITLE=Various Artist - 微塵子空挺楽団2
DYEAR=1900
DGENRE=
TTITLE0=mongolian folk song/tsombon tuuraitai khuren
TTITLE1=mongolian folk song/gepee busgui-gooj nanna
TTITLE2=盛岡さんさ踊り
TTITLE3=uzubekistan troupe/wica
TTITLE4=afrikan song/she maya lon
TTITLE5=afrikan song/秋田音頭 kelafa
EXTD=
EXTT0=
EXTT1=
EXTT2=
EXTT3=
EXTT4=
EXTT5=
PLAYORDER=
